<svg xmlns="http://www.w3.org/2000/svg" height="48" viewBox="0 96 960 960" width="48"><path d="M267.594 924.999q-14.746 0-24.4-9.561-9.654-9.561-9.654-24.362v-70.077Q206.848 809 189.925 778.29q-16.924-30.71-16.924-65.598V322q0-69.88 72.377-101.439 72.376-31.56 235.225-31.56 159.166 0 232.781 32.257Q786.999 253.514 786.999 322v390.692q0 34.888-16.924 65.598-16.923 30.71-43.615 42.709v70.077q0 14.801-9.523 24.362-9.522 9.561-24.268 9.561-14.747 0-24.4-9.561-9.654-9.561-9.654-24.362v-47.693h-357.23v47.693q0 14.801-9.523 24.362-9.522 9.561-24.268 9.561Zm-44.209-390.69h513.23V351.307h-513.23v183.002Zm105.855 205.69q21.55 0 36.309-15.084 14.758-15.085 14.758-36.635 0-21.549-15.084-36.568-15.085-15.019-36.635-15.019-21.549 0-36.568 15.344-15.019 15.345-15.019 36.895 0 21.549 15.345 36.308t36.894 14.759Zm302.171 0q21.55 0 36.569-15.084 15.019-15.085 15.019-36.635 0-21.549-15.345-36.568-15.345-15.019-36.894-15.019-21.55 0-36.309 15.344-14.758 15.345-14.758 36.895 0 21.549 15.084 36.308 15.085 14.759 36.634 14.759Z"/></svg>